<svg width="500" height="500" viewBox="0 0 500 500" fill="none" xmlns="http://www.w3.org/2000/svg">
<defs>
<linearGradient id="paint0_linear_402_8" x1="284.291" y1="137" x2="284.291" y2="269" gradientUnits="userSpaceOnUse">
<stop stop-color="#7BC050"/>
<stop offset="1" stop-color="#29AA91"/>
</linearGradient>
<linearGradient id="paint1_linear_402_8" x1="377.294" y1="166.683" x2="340.282" y2="228.915" gradientUnits="userSpaceOnUse">
<stop stop-color="#7BC050"/>
<stop offset="1" stop-color="#29AA91"/>
</linearGradient>
<linearGradient id="paint2_linear_402_8" x1="240.969" y1="94.8803" x2="251.978" y2="171.207" gradientUnits="userSpaceOnUse">
<stop stop-color="#7BC050"/>
<stop offset="1" stop-color="#29AA91"/>
</linearGradient>
<linearGradient id="paint3_linear_402_8" x1="103.393" y1="186.842" x2="165.228" y2="215.301" gradientUnits="userSpaceOnUse">
<stop stop-color="#7BC050"/>
<stop offset="1" stop-color="#29AA91"/>
</linearGradient>
<linearGradient id="paint4_linear_402_8" x1="165.489" y1="152.184" x2="239.336" y2="250.299" gradientUnits="userSpaceOnUse">
<stop stop-color="#7BC050"/>
<stop offset="1" stop-color="#29AA91"/>
</linearGradient>
<linearGradient id="paint5_linear_402_8" x1="99" y1="262.5" x2="209" y2="262.5" gradientUnits="userSpaceOnUse">
<stop stop-color="#7BC050"/>
<stop offset="1" stop-color="#29AA91"/>
</linearGradient>
<linearGradient id="paint6_linear_402_8" x1="141.887" y1="347.968" x2="203.984" y2="302.089" gradientUnits="userSpaceOnUse">
<stop stop-color="#7BC050"/>
<stop offset="1" stop-color="#29AA91"/>
</linearGradient>
<linearGradient id="paint7_linear_402_8" x1="398.354" y1="238.434" x2="304.298" y2="293.471" gradientUnits="userSpaceOnUse">
<stop stop-color="#7BC050"/>
<stop offset="1" stop-color="#29AA91"/>
</linearGradient>
<linearGradient id="paint8_linear_402_8" x1="362.928" y1="336.745" x2="292.02" y2="317.421" gradientUnits="userSpaceOnUse">
<stop stop-color="#7BC050"/>
<stop offset="1" stop-color="#29AA91"/>
</linearGradient>
</defs>
<path d="M294.156 137C234.956 193 247.823 248.333 261.656 269C264.856 238.6 278.656 212 285.156 202.5C277.956 216.9 275.823 252.833 275.656 269C343.256 231.8 316.156 165.5 294.156 137Z" fill="url(#paint0_linear_402_8)"/>
<path d="M381.978 169.469C338.167 179.153 328.761 208.874 329.534 222.523C339.578 209.095 353.589 200.451 359.339 197.808C351.882 202.563 340.794 218.902 336.182 226.477C378.709 228.028 384.432 189.118 381.978 169.469Z" fill="url(#paint1_linear_402_8)"/>
<path d="M246.714 94.0517C216.91 131.405 229.018 162.32 238.797 173.109C238.125 155.262 243.943 138.721 246.936 132.682C243.944 141.613 245.699 162.571 246.95 171.933C283.214 144.744 261.903 108.684 246.714 94.0517Z" fill="url(#paint2_linear_402_8)"/>
<path d="M105.535 182.188C118.914 222.191 147.629 228.05 160.314 225.979C146.767 217.916 137.303 205.67 134.264 200.556C139.446 207.057 155.816 215.81 163.353 219.374C160.605 179.462 123.662 177.953 105.535 182.188Z" fill="url(#paint3_linear_402_8)"/>
<path d="M172.821 146.665C160.147 221.409 200.668 255.34 222.512 262.963C207.883 238.576 203.259 211.084 202.776 200.386C205.48 215.118 223.997 243.02 232.918 255.13C262.353 189.661 205.118 155.541 172.821 146.665Z" fill="url(#paint4_linear_402_8)"/>
<path d="M99 254.301C145.667 303.503 191.778 292.809 209 281.312C183.667 278.653 161.5 267.183 153.583 261.781C165.583 267.765 195.528 269.538 209 269.677C178 213.493 122.75 236.016 99 254.301Z" fill="url(#paint5_linear_402_8)"/>
<path d="M138.467 343.339C185.333 351.651 206.903 326.382 211.83 312.709C196.42 321.773 179.123 324.544 172.4 324.796C181.67 323.169 199.314 311.681 206.977 306.14C166.044 287.353 144.248 323.111 138.467 343.339Z" fill="url(#paint6_linear_402_8)"/>
<path d="M402.467 245.464C337.881 226.63 303.818 258.869 294.86 277.342C317.856 266.947 342.563 265.69 352.043 266.361C338.78 267.234 312.286 280.696 300.697 287.318C355.39 319.976 391.332 273.023 402.467 245.464Z" fill="url(#paint7_linear_402_8)"/>
<path d="M361.484 342.045C340.069 302.045 308.461 300.856 295.334 305.262C311.196 311.431 323.465 322.738 327.616 327.621C320.935 321.645 301.944 315.238 293.284 312.782C303.371 354.542 342.954 349.69 361.484 342.045Z" fill="url(#paint8_linear_402_8)"/>
<path d="M275.272 400.917C256.072 413.317 245.272 406.084 242.272 400.917C244.272 379.417 247.272 337.188 245.272 328.688C240.566 308.688 208.772 302.417 215.772 296.917C217.889 295.253 232.772 303.917 232.772 303.917C212.272 281.917 210.772 277.417 214.772 276.917C219.272 276.917 232.772 294.917 236.272 293.417C223.472 271.017 224.272 266.417 225.772 265.917C229.173 264.783 234.772 276.917 239.272 284.417C246.125 295.839 248.938 288.584 248.272 284.417L246.272 264.417C246.272 260.917 250.772 260.917 251.772 266.417C255.759 288.35 260.272 293.917 262.772 294.917C270.233 297.902 278.272 286.417 282.272 280.417C284.938 276.417 289.925 281.417 285.272 286.917C261.32 315.223 268.272 374.25 275.272 400.917Z" fill="#4D4D4D"/>
</svg>
